<?xml version="1.0" encoding="UTF-8"?>
<svg version="1.1" xmlns="http://www.w3.org/2000/svg" width="1041" height="264">
<path d="M0 0 C38.61 0 77.22 0 117 0 C117 4.95 117 9.9 117 15 C121.62 15 126.24 15 131 15 C131 20.94 131 26.88 131 33 C132.98 33 134.96 33 137 33 C137 37.95 137 42.9 137 48 C141.29 48 145.58 48 150 48 C150 62.19 150 76.38 150 91 C143.73 91 137.46 91 131 91 C131 93.64 131 96.28 131 99 C132.98 99 134.96 99 137 99 C137 103.95 137 108.9 137 114 C141.29 114 145.58 114 150 114 C150 139.08 150 164.16 150 190 C134.16 190 118.32 190 102 190 C102 183.73 102 177.46 102 171 C100.02 171 98.04 171 96 171 C96 155.49 96 139.98 96 124 C82.14 124 68.28 124 54 124 C54 145.78 54 167.56 54 190 C38.16 190 22.32 190 6 190 C6 183.73 6 177.46 6 171 C4.02 171 2.04 171 0 171 C0 114.57 0 58.14 0 0 Z M117 19 C117 19.66 117 20.32 117 21 C119.97 21 122.94 21 126 21 C126 24.96 126 28.92 126 33 C126.33 33 126.66 33 127 33 C127 28.38 127 23.76 127 19 C123.7 19 120.4 19 117 19 Z M117 25 C117 27.64 117 30.28 117 33 C118.65 33 120.3 33 122 33 C122 30.36 122 27.72 122 25 C120.35 25 118.7 25 117 25 Z M40 39 C40 47.91 40 56.82 40 66 C41.65 66 43.3 66 45 66 C45 60.06 45 54.12 45 48 C61.83 48 78.66 48 96 48 C96 45.03 96 42.06 96 39 C77.52 39 59.04 39 40 39 Z M49 52 C49 56.62 49 61.24 49 66 C49.33 66 49.66 66 50 66 C50 62.04 50 58.08 50 54 C65.18 54 80.36 54 96 54 C96 53.34 96 52.68 96 52 C80.49 52 64.98 52 49 52 Z M137 52 C137 52.66 137 53.32 137 54 C139.64 54 142.28 54 145 54 C145 64.23 145 74.46 145 85 C138.73 85 132.46 85 126 85 C126 89.62 126 94.24 126 99 C126.33 99 126.66 99 127 99 C127 95.04 127 91.08 127 87 C133.27 87 139.54 87 146 87 C146 75.45 146 63.9 146 52 C143.03 52 140.06 52 137 52 Z M54 58 C54 60.64 54 63.28 54 66 C67.86 66 81.72 66 96 66 C96 63.36 96 60.72 96 58 C82.14 58 68.28 58 54 58 Z M137 58 C137 62.62 137 67.24 137 72 C130.4 72 123.8 72 117 72 C117 80.91 117 89.82 117 99 C118.65 99 120.3 99 122 99 C122 93.06 122 87.12 122 81 C128.27 81 134.54 81 141 81 C141 73.41 141 65.82 141 58 C139.68 58 138.36 58 137 58 Z M40 105 C40 126.78 40 148.56 40 171 C31.75 171 23.5 171 15 171 C15 173.97 15 176.94 15 180 C24.9 180 34.8 180 45 180 C45 158.22 45 136.44 45 114 C61.83 114 78.66 114 96 114 C96 111.03 96 108.06 96 105 C77.52 105 59.04 105 40 105 Z M49 118 C49 139.78 49 161.56 49 184 C36.46 184 23.92 184 11 184 C11 179.71 11 175.42 11 171 C10.67 171 10.34 171 10 171 C10 175.95 10 180.9 10 186 C23.2 186 36.4 186 50 186 C50 164.22 50 142.44 50 120 C65.18 120 80.36 120 96 120 C96 119.34 96 118.68 96 118 C80.49 118 64.98 118 49 118 Z M137 118 C137 118.66 137 119.32 137 120 C139.64 120 142.28 120 145 120 C145 141.12 145 162.24 145 184 C132.46 184 119.92 184 107 184 C107 179.71 107 175.42 107 171 C106.67 171 106.34 171 106 171 C106 175.95 106 180.9 106 186 C119.2 186 132.4 186 146 186 C146 163.56 146 141.12 146 118 C143.03 118 140.06 118 137 118 Z M137 124 C137 139.51 137 155.02 137 171 C128.42 171 119.84 171 111 171 C111 173.97 111 176.94 111 180 C120.9 180 130.8 180 141 180 C141 161.52 141 143.04 141 124 C139.68 124 138.36 124 137 124 Z " fill="#000000" transform="translate(385,42)"/>
<path d="M0 0 C32.34 0 64.68 0 98 0 C98 4.95 98 9.9 98 15 C102.62 15 107.24 15 112 15 C112 20.94 112 26.88 112 33 C113.98 33 115.96 33 118 33 C118 37.95 118 42.9 118 48 C122.29 48 126.58 48 131 48 C131 94.86 131 141.72 131 190 C115.16 190 99.32 190 83 190 C83 183.73 83 177.46 83 171 C81.02 171 79.04 171 77 171 C77 155.49 77 139.98 77 124 C62.81 124 48.62 124 34 124 C34 145.78 34 167.56 34 190 C18.49 190 2.98 190 -13 190 C-13 183.73 -13 177.46 -13 171 C-14.98 171 -16.96 171 -19 171 C-19 125.46 -19 79.92 -19 33 C-12.73 33 -6.46 33 0 33 C0 22.11 0 11.22 0 0 Z M98 19 C98 19.66 98 20.32 98 21 C100.97 21 103.94 21 107 21 C107 24.96 107 28.92 107 33 C107.33 33 107.66 33 108 33 C108 28.38 108 23.76 108 19 C104.7 19 101.4 19 98 19 Z M98 25 C98 27.64 98 30.28 98 33 C99.65 33 101.3 33 103 33 C103 30.36 103 27.72 103 25 C101.35 25 99.7 25 98 25 Z M21 39 C21 47.91 21 56.82 21 66 C22.32 66 23.64 66 25 66 C25 60.06 25 54.12 25 48 C42.16 48 59.32 48 77 48 C77 45.03 77 42.06 77 39 C58.52 39 40.04 39 21 39 Z M29 52 C29 56.62 29 61.24 29 66 C29.33 66 29.66 66 30 66 C30 62.04 30 58.08 30 54 C45.51 54 61.02 54 77 54 C77 53.34 77 52.68 77 52 C61.16 52 45.32 52 29 52 Z M118 52 C118 52.66 118 53.32 118 54 C120.64 54 123.28 54 126 54 C126 96.9 126 139.8 126 184 C113.46 184 100.92 184 88 184 C88 179.71 88 175.42 88 171 C87.67 171 87.34 171 87 171 C87 175.95 87 180.9 87 186 C100.2 186 113.4 186 127 186 C127 141.78 127 97.56 127 52 C124.03 52 121.06 52 118 52 Z M34 58 C34 60.64 34 63.28 34 66 C48.19 66 62.38 66 77 66 C77 63.36 77 60.72 77 58 C62.81 58 48.62 58 34 58 Z M118 58 C118 95.29 118 132.58 118 171 C109.42 171 100.84 171 92 171 C92 173.97 92 176.94 92 180 C101.9 180 111.8 180 122 180 C122 139.74 122 99.48 122 58 C120.68 58 119.36 58 118 58 Z M21 105 C21 126.78 21 148.56 21 171 C12.75 171 4.5 171 -4 171 C-4 173.97 -4 176.94 -4 180 C5.57 180 15.14 180 25 180 C25 158.22 25 136.44 25 114 C42.16 114 59.32 114 77 114 C77 111.03 77 108.06 77 105 C58.52 105 40.04 105 21 105 Z M29 118 C29 139.78 29 161.56 29 184 C16.79 184 4.58 184 -8 184 C-8 179.71 -8 175.42 -8 171 C-8.33 171 -8.66 171 -9 171 C-9 175.95 -9 180.9 -9 186 C3.87 186 16.74 186 30 186 C30 164.22 30 142.44 30 120 C45.51 120 61.02 120 77 120 C77 119.34 77 118.68 77 118 C61.16 118 45.32 118 29 118 Z " fill="#000000" transform="translate(250,42)"/>
<path d="M0 0 C13.2 0 26.4 0 40 0 C40 4.95 40 9.9 40 15 C44.62 15 49.24 15 54 15 C54 31.83 54 48.66 54 66 C67.86 66 81.72 66 96 66 C96 44.22 96 22.44 96 0 C109.53 0 123.06 0 137 0 C137 4.95 137 9.9 137 15 C141.29 15 145.58 15 150 15 C150 72.75 150 130.5 150 190 C134.16 190 118.32 190 102 190 C102 183.73 102 177.46 102 171 C100.02 171 98.04 171 96 171 C96 155.49 96 139.98 96 124 C82.14 124 68.28 124 54 124 C54 145.78 54 167.56 54 190 C38.16 190 22.32 190 6 190 C6 183.73 6 177.46 6 171 C4.02 171 2.04 171 0 171 C0 114.57 0 58.14 0 0 Z M40 19 C40 19.66 40 20.32 40 21 C42.97 21 45.94 21 49 21 C49 35.85 49 50.7 49 66 C49.33 66 49.66 66 50 66 C50 50.49 50 34.98 50 19 C46.7 19 43.4 19 40 19 Z M137 19 C137 19.66 137 20.32 137 21 C139.64 21 142.28 21 145 21 C145 74.79 145 128.58 145 184 C132.46 184 119.92 184 107 184 C107 179.71 107 175.42 107 171 C106.67 171 106.34 171 106 171 C106 175.95 106 180.9 106 186 C119.2 186 132.4 186 146 186 C146 130.89 146 75.78 146 19 C143.03 19 140.06 19 137 19 Z M40 25 C40 38.53 40 52.06 40 66 C41.65 66 43.3 66 45 66 C45 52.47 45 38.94 45 25 C43.35 25 41.7 25 40 25 Z M137 25 C137 73.18 137 121.36 137 171 C128.42 171 119.84 171 111 171 C111 173.97 111 176.94 111 180 C120.9 180 130.8 180 141 180 C141 128.85 141 77.7 141 25 C139.68 25 138.36 25 137 25 Z M40 105 C40 126.78 40 148.56 40 171 C31.75 171 23.5 171 15 171 C15 173.97 15 176.94 15 180 C24.9 180 34.8 180 45 180 C45 158.22 45 136.44 45 114 C61.83 114 78.66 114 96 114 C96 111.03 96 108.06 96 105 C77.52 105 59.04 105 40 105 Z M49 118 C49 139.78 49 161.56 49 184 C36.46 184 23.92 184 11 184 C11 179.71 11 175.42 11 171 C10.67 171 10.34 171 10 171 C10 175.95 10 180.9 10 186 C23.2 186 36.4 186 50 186 C50 164.22 50 142.44 50 120 C65.18 120 80.36 120 96 120 C96 119.34 96 118.68 96 118 C80.49 118 64.98 118 49 118 Z " fill="#000000" transform="translate(19,42)"/>
<path d="M0 0 C13.53 0 27.06 0 41 0 C41 4.95 41 9.9 41 15 C45.29 15 49.58 15 54 15 C54 31.83 54 48.66 54 66 C68.19 66 82.38 66 97 66 C97 44.22 97 22.44 97 0 C110.2 0 123.4 0 137 0 C137 4.95 137 9.9 137 15 C141.29 15 145.58 15 150 15 C150 72.75 150 130.5 150 190 C134.49 190 118.98 190 103 190 C103 183.73 103 177.46 103 171 C101.02 171 99.04 171 97 171 C97 155.49 97 139.98 97 124 C82.81 124 68.62 124 54 124 C54 145.78 54 167.56 54 190 C38.16 190 22.32 190 6 190 C6 183.73 6 177.46 6 171 C4.02 171 2.04 171 0 171 C0 114.57 0 58.14 0 0 Z M41 19 C41 19.66 41 20.32 41 21 C43.64 21 46.28 21 49 21 C49 35.85 49 50.7 49 66 C49.33 66 49.66 66 50 66 C50 50.49 50 34.98 50 19 C47.03 19 44.06 19 41 19 Z M137 19 C137 19.66 137 20.32 137 21 C139.64 21 142.28 21 145 21 C145 74.79 145 128.58 145 184 C132.79 184 120.58 184 108 184 C108 179.71 108 175.42 108 171 C107.67 171 107.34 171 107 171 C107 175.95 107 180.9 107 186 C119.87 186 132.74 186 146 186 C146 130.89 146 75.78 146 19 C143.03 19 140.06 19 137 19 Z M41 25 C41 38.53 41 52.06 41 66 C42.32 66 43.64 66 45 66 C45 52.47 45 38.94 45 25 C43.68 25 42.36 25 41 25 Z M137 25 C137 73.18 137 121.36 137 171 C128.75 171 120.5 171 112 171 C112 173.97 112 176.94 112 180 C121.57 180 131.14 180 141 180 C141 128.85 141 77.7 141 25 C139.68 25 138.36 25 137 25 Z M41 105 C41 126.78 41 148.56 41 171 C32.42 171 23.84 171 15 171 C15 173.97 15 176.94 15 180 C24.9 180 34.8 180 45 180 C45 158.22 45 136.44 45 114 C62.16 114 79.32 114 97 114 C97 111.03 97 108.06 97 105 C78.52 105 60.04 105 41 105 Z M49 118 C49 139.78 49 161.56 49 184 C36.46 184 23.92 184 11 184 C11 179.71 11 175.42 11 171 C10.67 171 10.34 171 10 171 C10 175.95 10 180.9 10 186 C23.2 186 36.4 186 50 186 C50 164.22 50 142.44 50 120 C65.51 120 81.02 120 97 120 C97 119.34 97 118.68 97 118 C81.16 118 65.32 118 49 118 Z " fill="#000000" transform="translate(693,42)"/>
<path d="M0 0 C38.94 0 77.88 0 118 0 C118 4.95 118 9.9 118 15 C122.29 15 126.58 15 131 15 C131 29.19 131 43.38 131 58 C99.32 58 67.64 58 35 58 C35 82.42 35 106.84 35 132 C62.39 132 89.78 132 118 132 C118 136.95 118 141.9 118 147 C122.29 147 126.58 147 131 147 C131 161.19 131 175.38 131 190 C89.75 190 48.5 190 6 190 C6 183.73 6 177.46 6 171 C4.02 171 2.04 171 0 171 C0 166.38 0 161.76 0 157 C-4.29 157 -8.58 157 -13 157 C-13 150.73 -13 144.46 -13 138 C-14.98 138 -16.96 138 -19 138 C-19 103.35 -19 68.7 -19 33 C-12.73 33 -6.46 33 0 33 C0 22.11 0 11.22 0 0 Z M118 25 C118 29.62 118 34.24 118 39 C85.99 39 53.98 39 21 39 C21 69.69 21 100.38 21 132 C22.65 132 24.3 132 26 132 C26 104.28 26 76.56 26 48 C57.68 48 89.36 48 122 48 C122 40.41 122 32.82 122 25 C120.68 25 119.36 25 118 25 Z M118 19 C118 19.66 118 20.32 118 21 C120.64 21 123.28 21 126 21 C126 31.23 126 41.46 126 52 C94.32 52 62.64 52 30 52 C30 78.4 30 104.8 30 132 C30.33 132 30.66 132 31 132 C31 106.26 31 80.52 31 54 C62.68 54 94.36 54 127 54 C127 42.45 127 30.9 127 19 C124.03 19 121.06 19 118 19 Z M-9 138 C-9 142.95 -9 147.9 -9 153 C-6.03 153 -3.06 153 0 153 C0 152.34 0 151.68 0 151 C-2.64 151 -5.28 151 -8 151 C-8 146.71 -8 142.42 -8 138 C-8.33 138 -8.66 138 -9 138 Z M-4 138 C-4 140.97 -4 143.94 -4 147 C-2.68 147 -1.36 147 0 147 C0 144.03 0 141.06 0 138 C-1.32 138 -2.64 138 -4 138 Z M118 151 C118 151.66 118 152.32 118 153 C120.64 153 123.28 153 126 153 C126 163.23 126 173.46 126 184 C88.05 184 50.1 184 11 184 C11 179.71 11 175.42 11 171 C10.67 171 10.34 171 10 171 C10 175.95 10 180.9 10 186 C48.61 186 87.22 186 127 186 C127 174.45 127 162.9 127 151 C124.03 151 121.06 151 118 151 Z M118 157 C118 161.62 118 166.24 118 171 C84.01 171 50.02 171 15 171 C15 173.97 15 176.94 15 180 C50.31 180 85.62 180 122 180 C122 172.41 122 164.82 122 157 C120.68 157 119.36 157 118 157 Z " fill="#000000" transform="translate(558,42)"/>
<path d="M0 0 C13.53 0 27.06 0 41 0 C41 4.95 41 9.9 41 15 C45.29 15 49.58 15 54 15 C54 20.94 54 26.88 54 33 C55.98 33 57.96 33 60 33 C60 37.95 60 42.9 60 48 C64.29 48 68.58 48 73 48 C73 53.94 73 59.88 73 66 C80.92 66 88.84 66 97 66 C97 55.11 97 44.22 97 33 C103.27 33 109.54 33 116 33 C116 22.11 116 11.22 116 0 C129.2 0 142.4 0 156 0 C156 4.95 156 9.9 156 15 C160.62 15 165.24 15 170 15 C170 29.19 170 43.38 170 58 C163.4 58 156.8 58 150 58 C150 68.89 150 79.78 150 91 C143.73 91 137.46 91 131 91 C131 101.89 131 112.78 131 124 C124.73 124 118.46 124 112 124 C112 145.78 112 167.56 112 190 C96.16 190 80.32 190 64 190 C64 183.73 64 177.46 64 171 C62.02 171 60.04 171 58 171 C58 155.49 58 139.98 58 124 C53.71 124 49.42 124 45 124 C45 117.73 45 111.46 45 105 C43.02 105 41.04 105 39 105 C39 100.38 39 95.76 39 91 C34.71 91 30.42 91 26 91 C26 84.73 26 78.46 26 72 C24.02 72 22.04 72 20 72 C20 67.38 20 62.76 20 58 C15.38 58 10.76 58 6 58 C6 51.73 6 45.46 6 39 C4.02 39 2.04 39 0 39 C0 26.13 0 13.26 0 0 Z M41 19 C41 19.66 41 20.32 41 21 C43.64 21 46.28 21 49 21 C49 24.96 49 28.92 49 33 C49.33 33 49.66 33 50 33 C50 28.38 50 23.76 50 19 C47.03 19 44.06 19 41 19 Z M156 19 C156 19.66 156 20.32 156 21 C158.97 21 161.94 21 165 21 C165 31.23 165 41.46 165 52 C158.4 52 151.8 52 145 52 C145 62.89 145 73.78 145 85 C138.73 85 132.46 85 126 85 C126 95.89 126 106.78 126 118 C119.73 118 113.46 118 107 118 C107 139.78 107 161.56 107 184 C94.46 184 81.92 184 69 184 C69 179.71 69 175.42 69 171 C68.67 171 68.34 171 68 171 C68 175.95 68 180.9 68 186 C81.2 186 94.4 186 108 186 C108 164.22 108 142.44 108 120 C114.27 120 120.54 120 127 120 C127 109.11 127 98.22 127 87 C133.27 87 139.54 87 146 87 C146 76.11 146 65.22 146 54 C152.6 54 159.2 54 166 54 C166 42.45 166 30.9 166 19 C162.7 19 159.4 19 156 19 Z M41 25 C41 27.64 41 30.28 41 33 C42.32 33 43.64 33 45 33 C45 30.36 45 27.72 45 25 C43.68 25 42.36 25 41 25 Z M156 25 C156 29.62 156 34.24 156 39 C149.73 39 143.46 39 137 39 C137 49.89 137 60.78 137 72 C130.73 72 124.46 72 118 72 C118 82.89 118 93.78 118 105 C111.4 105 104.8 105 98 105 C98 126.78 98 148.56 98 171 C89.75 171 81.5 171 73 171 C73 173.97 73 176.94 73 180 C82.9 180 92.8 180 103 180 C103 158.22 103 136.44 103 114 C109.27 114 115.54 114 122 114 C122 103.11 122 92.22 122 81 C128.27 81 134.54 81 141 81 C141 70.11 141 59.22 141 48 C147.6 48 154.2 48 161 48 C161 40.41 161 32.82 161 25 C159.35 25 157.7 25 156 25 Z M10 39 C10 43.95 10 48.9 10 54 C13.3 54 16.6 54 20 54 C20 53.34 20 52.68 20 52 C17.03 52 14.06 52 11 52 C11 47.71 11 43.42 11 39 C10.67 39 10.34 39 10 39 Z M15 39 C15 41.97 15 44.94 15 48 C16.65 48 18.3 48 20 48 C20 45.03 20 42.06 20 39 C18.35 39 16.7 39 15 39 Z M60 52 C60 52.66 60 53.32 60 54 C62.64 54 65.28 54 68 54 C68 57.96 68 61.92 68 66 C68.33 66 68.66 66 69 66 C69 61.38 69 56.76 69 52 C66.03 52 63.06 52 60 52 Z M60 58 C60 60.64 60 63.28 60 66 C61.32 66 62.64 66 64 66 C64 63.36 64 60.72 64 58 C62.68 58 61.36 58 60 58 Z M30 72 C30 76.95 30 81.9 30 87 C32.97 87 35.94 87 39 87 C39 86.34 39 85.68 39 85 C36.36 85 33.72 85 31 85 C31 80.71 31 76.42 31 72 C30.67 72 30.34 72 30 72 Z M35 72 C35 74.97 35 77.94 35 81 C36.32 81 37.64 81 39 81 C39 78.03 39 75.06 39 72 C37.68 72 36.36 72 35 72 Z M49 105 C49 109.95 49 114.9 49 120 C51.97 120 54.94 120 58 120 C58 119.34 58 118.68 58 118 C55.36 118 52.72 118 50 118 C50 113.71 50 109.42 50 105 C49.67 105 49.34 105 49 105 Z M54 105 C54 107.97 54 110.94 54 114 C55.32 114 56.64 114 58 114 C58 111.03 58 108.06 58 105 C56.68 105 55.36 105 54 105 Z " fill="#000000" transform="translate(847,42)"/>
<path d="M0 0 C13.2 0 26.4 0 40 0 C40 4.95 40 9.9 40 15 C44.62 15 49.24 15 54 15 C54 72.75 54 130.5 54 190 C38.16 190 22.32 190 6 190 C6 183.73 6 177.46 6 171 C4.02 171 2.04 171 0 171 C0 114.57 0 58.14 0 0 Z M40 19 C40 19.66 40 20.32 40 21 C42.97 21 45.94 21 49 21 C49 74.79 49 128.58 49 184 C36.46 184 23.92 184 11 184 C11 179.71 11 175.42 11 171 C10.67 171 10.34 171 10 171 C10 175.95 10 180.9 10 186 C23.2 186 36.4 186 50 186 C50 130.89 50 75.78 50 19 C46.7 19 43.4 19 40 19 Z M40 25 C40 73.18 40 121.36 40 171 C31.75 171 23.5 171 15 171 C15 173.97 15 176.94 15 180 C24.9 180 34.8 180 45 180 C45 128.85 45 77.7 45 25 C43.35 25 41.7 25 40 25 Z " fill="#000000" transform="translate(173,42)"/>
</svg>
